<svg width="150" height="150" viewBox="0 0 150 150" fill="none" xmlns="http://www.w3.org/2000/svg">
<g clip-path="url(#clip0_2_3)">
<rect width="150" height="150" rx="75" fill="#101635"/>
<line x1="76.2538" y1="1.08183" x2="4.25381" y2="151.082" stroke="#C01515" stroke-width="5"/>
<line x1="76.2703" y1="-1.04671" x2="147.27" y2="152.953" stroke="#C01515" stroke-width="5"/>
<line x1="30" y1="95.5" x2="122" y2="95.5" stroke="#C01515" stroke-width="5"/>
<circle cx="8" cy="10" r="6" fill="#811793"/>
<circle cx="36" cy="13" r="6" fill="#811793"/>
<circle cx="20" cy="30" r="6" fill="#811793"/>
<circle cx="14" cy="62" r="6" fill="#811793"/>
<circle cx="38" cy="46" r="6" fill="#811793"/>
<path d="M114 37L115.796 42.1824H121.608L116.906 45.3853L118.702 50.5676L114 47.3647L109.298 50.5676L111.094 45.3853L106.392 42.1824H112.204L114 37Z" fill="#330283"/>
<path d="M133 25L134.796 30.1824H140.608L135.906 33.3853L137.702 38.5676L133 35.3647L128.298 38.5676L130.094 33.3853L125.392 30.1824H131.204L133 25Z" fill="#330283"/>
<path d="M138 4L139.796 9.18237H145.608L140.906 12.3853L142.702 17.5676L138 14.3647L133.298 17.5676L135.094 12.3853L130.392 9.18237H136.204L138 4Z" fill="#330283"/>
<path d="M101 1L102.796 6.18237H108.608L103.906 9.38525L105.702 14.5676L101 11.3647L96.2977 14.5676L98.0938 9.38525L93.3915 6.18237H99.2039L101 1Z" fill="#330283"/>
<path d="M133 62L134.796 67.1824H140.608L135.906 70.3853L137.702 75.5676L133 72.3647L128.298 75.5676L130.094 70.3853L125.392 67.1824H131.204L133 62Z" fill="#330283"/>
</g>
<defs>
<clipPath id="clip0_2_3">
<rect width="150" height="150" rx="75" fill="white"/>
</clipPath>
</defs>
</svg>
